<svg id="Layer_1" data-name="Layer 1" xmlns="http://www.w3.org/2000/svg" viewBox="0 0 283.46 283.46"><defs><style>.cls-1{fill:#eb008b;}.cls-2{opacity:0.5;}</style></defs><title>notfound</title><path class="cls-1" d="M278.46,5V278.46H5V5H278.46m5-5H0V283.46H283.46V0Z" transform="translate(0 0)"/><g class="cls-2"><path d="M135.85,155.59a34.49,34.49,0,0,1,.49-6.44A15.53,15.53,0,0,1,138,144.6a20.83,20.83,0,0,1,2.94-4q1.81-2,4.62-4.76,2.1-2.23,4.27-4.41a38.83,38.83,0,0,0,3.92-4.55,24.26,24.26,0,0,0,2.87-5,15.31,15.31,0,0,0,1.12-6,15.64,15.64,0,0,0-3.92-11q-3.92-4.26-10.92-4.27t-11.55,4.2a19,19,0,0,0-5.53,11.06l-12.6-1.4a30.42,30.42,0,0,1,3.57-10.22,25.48,25.48,0,0,1,6.51-7.49,29.38,29.38,0,0,1,9-4.62A35.31,35.31,0,0,1,143,90.49,34.63,34.63,0,0,1,153.7,92.1a25.4,25.4,0,0,1,8.68,4.76,21.91,21.91,0,0,1,5.81,7.84,26,26,0,0,1,2.1,10.71,24.47,24.47,0,0,1-1.33,8.33,29.56,29.56,0,0,1-3.5,6.86,40.7,40.7,0,0,1-5.11,6c-2,1.92-4,3.85-6,5.81-1.49,1.4-2.68,2.62-3.57,3.64a12,12,0,0,0-2,3.22,13,13,0,0,0-.91,3.71,49.56,49.56,0,0,0-.21,5v6.44H135.85Zm5.88,20.58a8.37,8.37,0,0,1,8.4,8.4,7.86,7.86,0,0,1-2.59,6,8.11,8.11,0,0,1-11.62,0,7.86,7.86,0,0,1-2.59-6,8.37,8.37,0,0,1,8.4-8.4Z" transform="translate(0 0)"/></g></svg>